Coordinates
version=1
nRows=9
nColumns=24
inDegrees=yes

Units are S.I. units (second, meters, Newtons, ...)
Angles are in degrees.

endheader
time	pelvis_tilt	pelvis_list	pelvis_rotation	pelvis_tx	pelvis_ty	pelvis_tz	hip_flexion_r	hip_adduction_r	hip_rotation_r	knee_angle_r	ankle_angle_r	subtalar_angle_r	mtp_angle_r	hip_flexion_l	hip_adduction_l	hip_rotation_l	knee_angle_l	ankle_angle_l	subtalar_angle_l	mtp_angle_l	lumbar_extension	lumbar_bending	lumbar_rotation
      1.24000000	     -9.53827373	     -4.77770586	     -4.87013878	     -0.52953328	      1.25237182	     -0.90821165	    -11.03300737	      9.15235577	      9.42595278	     -1.42823233	     10.73581600	     12.02990553	      9.14171485	     34.98395358	      0.13331739	      4.48579266	     -5.61027274	     -4.68203822	    -20.95085399	      8.84145365	     -0.64203460	     11.48116822	      5.94691770
      1.24500000	     -9.59149930	     -4.67722974	     -4.96241206	     -0.52277746	      1.25165266	     -0.90810237	    -11.15705697	      9.06912988	      9.25577676	     -1.94811368	     10.79631744	     12.05895881	      9.26934116	     35.13839954	      0.31270453	      4.70459588	     -6.75371853	     -4.97220724	    -21.03715082	      8.97118801	     -0.48845758	     11.27929420	      5.96323850
      1.25000000	     -9.64985378	     -4.57233220	     -5.04561332	     -0.51606101	      1.25095887	     -0.90814846	    -11.27191041	      8.94595768	      8.98290641	     -2.44962266	     10.87757287	     12.48338672	      9.76050974	     35.21923876	      0.53522721	      5.08524904	     -7.71232638	     -5.90671393	    -22.03758791	      8.77756178	     -0.33195819	     11.07594346	      6.16319688
      1.25500000	     -9.62403561	     -4.45568208	     -5.17782348	     -0.50937101	      1.25062210	     -0.90798949	    -11.46037443	      8.79388804	      8.96097887	     -2.94254876	     10.69807803	     12.58310810	     10.36702853	     35.12994742	      0.73294256	      5.15575595	     -8.37158747	     -7.32415448	    -23.35471030	      7.81161530	     -0.26347491	     10.83122909	      6.39354491
      1.26000000	     -9.62254683	     -4.28923470	     -5.36249271	     -0.50283163	      1.25054977	     -0.90777571	    -11.53004081	      8.58272767	      9.02604671	     -3.54687467	     10.51728850	     12.65764231	     10.90810438	     35.00642954	      0.91065113	      5.19613787	     -8.64107707	     -8.92725754	    -24.82969697	      6.56353552	     -0.20071305	     10.55005632	      6.67835281
      1.26500000	     -9.55447053	     -4.05927803	     -5.44921378	     -0.49642437	      1.25068302	     -0.90767905	    -11.61569006	      8.30045159	      9.01750514	     -4.21260480	     10.33177016	     12.78889870	     11.30761159	     34.76476433	      1.16211856	      5.27758968	     -8.63546376	    -10.10956110	    -25.68119323	      5.90979509	     -0.20109944	     10.17455373	      6.87612260
      1.27000000	     -9.49097173	     -3.79413796	     -5.46720713	     -0.48984067	      1.25101047	     -0.90757707	    -11.69495317	      7.99197802	      8.92217564	     -4.88304281	     10.08388201	     13.00820387	     11.71556067	     34.54603148	      1.46316110	      5.50273087	     -8.71955803	    -10.87977564	    -25.59170063	      5.81234148	     -0.17189406	      9.74957894	      7.04244695
      1.27500000	     -9.43677960	     -3.53794622	     -5.43070024	     -0.48318495	      1.25143511	     -0.90756426	    -11.72918208	      7.69630005	      8.71999169	     -5.60309032	      9.72855455	     13.24976940	     12.43349818	     34.27944126	      1.79770482	      5.95289525	     -8.81494383	    -11.73140221	    -25.35843368	      6.03193647	     -0.11751957	      9.35555969	      7.05042388
      1.28000000	     -9.36326607	     -3.32774375	     -5.36836959	     -0.47645940	      1.25200352	     -0.90769638	    -11.75629441	      7.43493650	      8.47992111	     -6.38002822	      9.34863048	     13.61481743	     13.21216872	     33.99177961	      2.13642475	      6.44076421	     -9.04990755	    -13.03628050	    -25.65674426	      6.53402717	     -0.08514759	      9.00338166	      7.12074629
